<svg width="300" height="200" xmlns="http://www.w3.org/2000/svg" xmlns:xlink="http://www.w3.org/1999/xlink" version="1.1" baseProfile="full" viewBox="0 0 300 200">
<rect width="300" height="200" x="0" y="0" fill="none"></rect>
<polyline points="219.1 89 234 86.7 249 86.7" fill="none" pointer-events="visible" stroke="#C6FF00" class="zr0-cls-0"></polyline>
<polyline points="105.4 153.9 95.8 165.5 80.8 165.5" fill="none" pointer-events="visible" stroke="#9FCC00" class="zr0-cls-0"></polyline>
<polyline points="103.7 47.5 93.8 36.2 78.8 36.2" fill="none" pointer-events="visible" stroke="#7DA300" class="zr0-cls-0"></polyline>
<path d="M150 30A70 70 0 0 1 171.6 166.6L162.4 138A40 40 0 0 0 150 60Z" fill="#C6FF00" stroke="#000" stroke-width="2" stroke-linejoin="round" ecmeta_series_index="0" ecmeta_data_index="0" ecmeta_ssr_type="chart" transform-origin="150px 100px" class="zr0-cls-1 zr0-cls-2"></path>
<path d="M171.6 166.6A70 70 0 0 1 80.6 91.2L110.3 95A40 40 0 0 0 162.4 138Z" fill="#9FCC00" stroke="#000" stroke-width="2" stroke-linejoin="round" ecmeta_series_index="0" ecmeta_data_index="1" ecmeta_ssr_type="chart" transform-origin="150px 100px" class="zr0-cls-3 zr0-cls-4"></path>
<path d="M80.6 91.2A70 70 0 0 1 150 30L150 60A40 40 0 0 0 110.3 95Z" fill="#7DA300" stroke="#000" stroke-width="2" stroke-linejoin="round" ecmeta_series_index="0" ecmeta_data_index="2" ecmeta_ssr_type="chart" transform-origin="150px 100px" class="zr0-cls-5 zr0-cls-6"></path>
<text dominant-baseline="central" text-anchor="start" style="font-size:12px;font-family:sans-serif;" transform="translate(253.9535 86.7031)" fill="#ffffff95">CPU</text>
<text dominant-baseline="central" text-anchor="end" style="font-size:12px;font-family:sans-serif;" transform="translate(75.819 165.4936)" fill="#ffffff95">内存</text>
<text dominant-baseline="central" text-anchor="end" style="font-size:12px;font-family:sans-serif;" transform="translate(73.7885 36.2406)" fill="#ffffff95">API调用</text>
<style ><![CDATA[
.zr0-cls-0:hover {
cursor:pointer;
}
.zr0-cls-1 {
animation:zr0-ani-0 1s cubic-bezier(0.65,0,0.35,1) both;
}
.zr0-cls-2:hover {
cursor:pointer;
fill:rgba(217,255,0,1);
}
.zr0-cls-3 {
animation:zr0-ani-1 1s cubic-bezier(0.65,0,0.35,1) both;
}
.zr0-cls-4:hover {
cursor:pointer;
fill:rgba(174,224,0,1);
}
.zr0-cls-5 {
animation:zr0-ani-2 1s cubic-bezier(0.65,0,0.35,1) both;
}
.zr0-cls-6:hover {
cursor:pointer;
fill:rgba(137,179,0,1);
}
@keyframes zr0-ani-0 {
0% {
transform:scale(0,0);
}
100% {

}
}
@keyframes zr0-ani-1 {
0% {
transform:scale(0,0);
}
100% {

}
}
@keyframes zr0-ani-2 {
0% {
transform:scale(0,0);
}
100% {

}
}
]]>

</style>
</svg>