<svg width="300" height="150" xmlns="http://www.w3.org/2000/svg" xmlns:xlink="http://www.w3.org/1999/xlink" version="1.1" baseProfile="full" viewBox="0 0 300 150">
<rect width="300" height="150" x="0" y="0" fill="none"></rect>
<g clip-path="url(#zr0-c0)">
<path d="M64.9 56.5C64.9 56.5 89.6 52 114.5 49.1C139.2 46.2 139.3 46.7 164.1 44.9C188.8 43 188.8 41.7 213.6 41.7C238.4 41.7 263.2 42.7 263.2 42.7L263.2 118L213.6 118L164.1 118L114.5 118L64.9 118Z" fill="url(#zr0-g0)" fill-opacity="0.7" class="zr0-cls-2"></path>
<path d="M64.9 56.5C64.9 56.5 89.6 52 114.5 49.1C139.2 46.2 139.3 46.7 164.1 44.9C188.8 43 188.8 41.7 213.6 41.7C238.4 41.7 263.2 42.7 263.2 42.7" fill="none" pointer-events="visible" stroke="#4D9FFF" stroke-width="2" stroke-linejoin="bevel" class="zr0-cls-3"></path>
</g>
<path d="M1 0A1 1 0 1 1 1 -0.1A1 1 0 0 1 1 0" transform="matrix(2,0,0,2,64.944,56.52)" fill="#fff" stroke="#4D9FFF" ecmeta_series_index="0" ecmeta_data_index="0" ecmeta_ssr_type="chart" class="zr0-cls-4"></path>
<path d="M1 0A1 1 0 1 1 1 -0.1A1 1 0 0 1 1 0" transform="matrix(2,0,0,2,114.512,49.1)" fill="#fff" stroke="#4D9FFF" ecmeta_series_index="0" ecmeta_data_index="1" ecmeta_ssr_type="chart" class="zr0-cls-4"></path>
<path d="M1 0A1 1 0 1 1 1 -0.1A1 1 0 0 1 1 0" transform="matrix(2,0,0,2,164.08,44.86)" fill="#fff" stroke="#4D9FFF" ecmeta_series_index="0" ecmeta_data_index="2" ecmeta_ssr_type="chart" class="zr0-cls-4"></path>
<path d="M1 0A1 1 0 1 1 1 -0.1A1 1 0 0 1 1 0" transform="matrix(2,0,0,2,213.648,41.68)" fill="#fff" stroke="#4D9FFF" ecmeta_series_index="0" ecmeta_data_index="3" ecmeta_ssr_type="chart" class="zr0-cls-4"></path>
<path d="M1 0A1 1 0 1 1 1 -0.1A1 1 0 0 1 1 0" transform="matrix(2,0,0,2,263.216,42.74)" fill="#fff" stroke="#4D9FFF" ecmeta_series_index="0" ecmeta_data_index="4" ecmeta_ssr_type="chart" class="zr0-cls-4"></path>
<defs >
<clipPath id="zr0-c0">
<path d="M39 11l251 0l0 108l-251 0Z" fill="#000" class="zr0-cls-0 zr0-cls-1"></path>
</clipPath>
<linearGradient gradientUnits="objectBoundingBox" x1="0" y1="0" x2="0" y2="1" id="zr0-g0">
<stop offset="0%" stop-color="#4D9FFF40"></stop>
<stop offset="100%" stop-color="#4D9FFF00"></stop>
</linearGradient>
</defs>
<style ><![CDATA[
.zr0-cls-0 {
animation:zr0-ani-0 1s linear both;
}
.zr0-cls-1:hover {
cursor:pointer;
fill:rgba(0,0,0,1);
}
.zr0-cls-2:hover {
cursor:pointer;
fill:[object Object];
}
.zr0-cls-3:hover {
cursor:pointer;
}
.zr0-cls-4:hover {
cursor:pointer;
fill:rgba(255,255,255,1);
}
@keyframes zr0-ani-0 {
0% {
d:path("M39 11l0 0l0 108l0 0Z");
}
100% {
d:path("M39 11l251 0l0 108l-251 0Z");
}
}
]]>

</style>
</svg>