<svg width="300" height="200" xmlns="http://www.w3.org/2000/svg" xmlns:xlink="http://www.w3.org/1999/xlink" version="1.1" baseProfile="full" viewBox="0 0 300 200">
<rect width="300" height="200" x="0" y="0" fill="none"></rect>
<path d="M36.8 168.5L288 168.5" fill="none" pointer-events="visible" stroke="#00E5FF30" class="zr0-cls-0"></path>
<path d="M36.8 145.5L288 145.5" fill="none" pointer-events="visible" stroke="#00E5FF30" class="zr0-cls-0"></path>
<path d="M36.8 123.5L288 123.5" fill="none" pointer-events="visible" stroke="#00E5FF30" class="zr0-cls-0"></path>
<path d="M36.8 101.5L288 101.5" fill="none" pointer-events="visible" stroke="#00E5FF30" class="zr0-cls-0"></path>
<path d="M36.8 79.5L288 79.5" fill="none" pointer-events="visible" stroke="#00E5FF30" class="zr0-cls-0"></path>
<path d="M36.8 56.5L288 56.5" fill="none" pointer-events="visible" stroke="#00E5FF30" class="zr0-cls-0"></path>
<path d="M36.8 34.5L288 34.5" fill="none" pointer-events="visible" stroke="#00E5FF30" class="zr0-cls-0"></path>
<path d="M36.8 12.5L288 12.5" fill="none" pointer-events="visible" stroke="#00E5FF30" class="zr0-cls-0"></path>
<path d="M36.8 168.5L288 168.5" fill="none" pointer-events="visible" stroke="#00E5FF" stroke-linecap="round" class="zr0-cls-0"></path>
<path d="M37.5 168L37.5 173" fill="none" pointer-events="visible" stroke="#00E5FF" class="zr0-cls-0"></path>
<path d="M108.5 168L108.5 173" fill="none" pointer-events="visible" stroke="#00E5FF" class="zr0-cls-0"></path>
<path d="M180.5 168L180.5 173" fill="none" pointer-events="visible" stroke="#00E5FF" class="zr0-cls-0"></path>
<path d="M252.5 168L252.5 173" fill="none" pointer-events="visible" stroke="#00E5FF" class="zr0-cls-0"></path>
<path d="M288.5 168L288.5 173" fill="none" pointer-events="visible" stroke="#00E5FF" class="zr0-cls-0"></path>
<text dominant-baseline="central" text-anchor="end" style="font-size:12px;font-family:sans-serif;" transform="translate(28.8 168)" fill="#ffffff70">0</text>
<text dominant-baseline="central" text-anchor="end" style="font-size:12px;font-family:sans-serif;" transform="translate(28.8 145.7143)" fill="#ffffff70">0.5</text>
<text dominant-baseline="central" text-anchor="end" style="font-size:12px;font-family:sans-serif;" transform="translate(28.8 123.4286)" fill="#ffffff70">1</text>
<text dominant-baseline="central" text-anchor="end" style="font-size:12px;font-family:sans-serif;" transform="translate(28.8 101.1429)" fill="#ffffff70">1.5</text>
<text dominant-baseline="central" text-anchor="end" style="font-size:12px;font-family:sans-serif;" transform="translate(28.8 78.8571)" fill="#ffffff70">2</text>
<text dominant-baseline="central" text-anchor="end" style="font-size:12px;font-family:sans-serif;" transform="translate(28.8 56.5714)" fill="#ffffff70">2.5</text>
<text dominant-baseline="central" text-anchor="end" style="font-size:12px;font-family:sans-serif;" transform="translate(28.8 34.2857)" fill="#ffffff70">3</text>
<text dominant-baseline="central" text-anchor="end" style="font-size:12px;font-family:sans-serif;" transform="translate(28.8 12)" fill="#ffffff70">3.5</text>
<text dominant-baseline="central" text-anchor="middle" style="font-size:12px;font-family:sans-serif;" y="6" transform="translate(54.7429 176)" fill="#ffffff70">00:00</text>
<text dominant-baseline="central" text-anchor="middle" style="font-size:12px;font-family:sans-serif;" y="6" transform="translate(126.5143 176)" fill="#ffffff70">08:00</text>
<text dominant-baseline="central" text-anchor="middle" style="font-size:12px;font-family:sans-serif;" y="6" transform="translate(198.2857 176)" fill="#ffffff70">16:00</text>
<text dominant-baseline="central" text-anchor="middle" style="font-size:12px;font-family:sans-serif;" y="6" transform="translate(270.0571 176)" fill="#ffffff70">24:00</text>
<path d="M46.4 74.4L63.1 74.4A4 4 0 0 1 67.1 78.4L67.1 168L42.4 168L42.4 78.4A4 4 0 0 1 46.4 74.4" fill="#9FCC00" ecmeta_series_index="0" ecmeta_data_index="0" ecmeta_ssr_type="chart" class="zr0-cls-1"></path>
<path d="M82.2 61L99 61A4 4 0 0 1 103 65L103 168L78.2 168L78.2 65A4 4 0 0 1 82.2 61" fill="#9FCC00" ecmeta_series_index="0" ecmeta_data_index="1" ecmeta_ssr_type="chart" class="zr0-cls-1"></path>
<path d="M118.1 87.8L134.9 87.8A4 4 0 0 1 138.9 91.8L138.9 168L114.1 168L114.1 91.8A4 4 0 0 1 118.1 87.8" fill="#9FCC00" ecmeta_series_index="0" ecmeta_data_index="2" ecmeta_ssr_type="chart" class="zr0-cls-1"></path>
<path d="M154 52.1L170.8 52.1A4 4 0 0 1 174.8 56.1L174.8 168L150 168L150 56.1A4 4 0 0 1 154 52.1" fill="#9FCC00" ecmeta_series_index="0" ecmeta_data_index="3" ecmeta_ssr_type="chart" class="zr0-cls-1"></path>
<path d="M189.9 29.8L206.7 29.8A4 4 0 0 1 210.7 33.8L210.7 168L185.9 168L185.9 33.8A4 4 0 0 1 189.9 29.8" fill="#9FCC00" ecmeta_series_index="0" ecmeta_data_index="4" ecmeta_ssr_type="chart" class="zr0-cls-1"></path>
<path d="M225.8 38.7L242.6 38.7A4 4 0 0 1 246.6 42.7L246.6 168L221.8 168L221.8 42.7A4 4 0 0 1 225.8 38.7" fill="#9FCC00" ecmeta_series_index="0" ecmeta_data_index="5" ecmeta_ssr_type="chart" class="zr0-cls-1"></path>
<path d="M261.7 65.5L278.4 65.5A4 4 0 0 1 282.4 69.5L282.4 168L257.7 168L257.7 69.5A4 4 0 0 1 261.7 65.5" fill="#9FCC00" ecmeta_series_index="0" ecmeta_data_index="6" ecmeta_ssr_type="chart" class="zr0-cls-1"></path>
<style ><![CDATA[
.zr0-cls-0:hover {
pointer-events:none;
}
.zr0-cls-1:hover {
cursor:pointer;
fill:rgba(174,224,0,1);
}

]]>

</style>
</svg>